M48
METRIC
T1F00S00C0.400
T2F00S00C0.600
T3F00S00C0.800
T4F00S00C0.914
T5F00S00C1.000
T6F00S00C1.100
T7F00S00C1.500
%
M71
G05
T1
X1.7400Y1.1463
X2.9544Y1.1463
X4.1689Y1.1463
X5.3833Y1.1463
X6.5977Y1.1463
X7.8122Y1.1463
X9.0266Y1.1463
X10.2411Y1.1463
X11.4555Y1.1463
X12.6699Y1.1463
X13.8844Y1.1463
X15.0988Y1.1463
X16.3132Y1.1463
X17.5277Y1.1463
X18.7421Y1.1463
X19.9566Y1.1463
X21.1710Y1.1463
X22.3854Y1.1463
X23.5999Y1.1463
X24.8143Y1.1463
X26.0287Y1.1463
X27.2432Y1.1463
X28.4576Y1.1463
X29.6721Y1.1463
X30.8865Y1.1463
X32.1009Y1.1463
X33.3154Y1.1463
X34.5298Y1.1463
X35.7442Y1.1463
X36.9587Y1.1463
X38.1731Y1.1463
X39.3875Y1.1463
X40.6020Y1.1463
X41.8164Y1.1463
X43.0309Y1.1463
X44.2453Y1.1463
X45.4597Y1.1463
X46.6742Y1.1463
X47.8886Y1.1463
X49.1030Y1.1463
X50.3175Y1.1463
X51.5319Y1.1463
X52.7464Y1.1463
X53.9608Y1.1463
X55.1752Y1.1463
X56.3897Y1.1463
X57.6041Y1.1463
X58.8185Y1.1463
X60.0330Y1.1463
X61.2474Y1.1463
X62.4619Y1.1463
X63.6763Y1.1463
X64.8907Y1.1463
X66.1052Y1.1463
X67.3196Y1.1463
X68.5340Y1.1463
X69.7485Y1.1463
X70.9629Y1.1463
X72.1773Y1.1463
X73.3918Y1.1463
X74.6062Y1.1463
X75.8207Y1.1463
X77.0351Y1.1463
X78.2495Y1.1463
X79.4640Y1.1463
X80.6784Y1.1463
X81.8928Y1.1463
X83.1073Y1.1463
X84.3217Y1.1463
X85.5362Y1.1463
X86.7506Y1.1463
X87.9650Y1.1463
X89.1795Y1.1463
X90.3939Y1.1463
X91.6083Y1.1463
X92.8228Y1.1463
X94.0372Y1.1463
X95.2517Y1.1463
X96.4661Y1.1463
X97.6805Y1.1463
X98.8950Y1.1463
X1.7400Y73.6950
X2.9544Y73.6950
X4.1689Y73.6950
X5.3833Y73.6950
X6.5977Y73.6950
X7.8122Y73.6950
X9.0266Y73.6950
X10.2411Y73.6950
X11.4555Y73.6950
X12.6699Y73.6950
X13.8844Y73.6950
X15.0988Y73.6950
X16.3132Y73.6950
X17.5277Y73.6950
X18.7421Y73.6950
X19.9566Y73.6950
X21.1710Y73.6950
X22.3854Y73.6950
X23.5999Y73.6950
X24.8143Y73.6950
X26.0287Y73.6950
X27.2432Y73.6950
X28.4576Y73.6950
X29.6721Y73.6950
X30.8865Y73.6950
X32.1009Y73.6950
X33.3154Y73.6950
X34.5298Y73.6950
X35.7442Y73.6950
X36.9587Y73.6950
X38.1731Y73.6950
X39.3875Y73.6950
X40.6020Y73.6950
X41.8164Y73.6950
X43.0309Y73.6950
X44.2453Y73.6950
X45.4597Y73.6950
X46.6742Y73.6950
X47.8886Y73.6950
X49.1030Y73.6950
X50.3175Y73.6950
X51.5319Y73.6950
X52.7464Y73.6950
X53.9608Y73.6950
X55.1752Y73.6950
X56.3897Y73.6950
X57.6041Y73.6950
X58.8185Y73.6950
X60.0330Y73.6950
X61.2474Y73.6950
X62.4619Y73.6950
X63.6763Y73.6950
X64.8907Y73.6950
X66.1052Y73.6950
X67.3196Y73.6950
X68.5340Y73.6950
X69.7485Y73.6950
X70.9629Y73.6950
X72.1773Y73.6950
X73.3918Y73.6950
X74.6062Y73.6950
X75.8207Y73.6950
X77.0351Y73.6950
X78.2495Y73.6950
X79.4640Y73.6950
X80.6784Y73.6950
X81.8928Y73.6950
X83.1073Y73.6950
X84.3217Y73.6950
X85.5362Y73.6950
X86.7506Y73.6950
X87.9650Y73.6950
X89.1795Y73.6950
X90.3939Y73.6950
X91.6083Y73.6950
X92.8228Y73.6950
X94.0372Y73.6950
X95.2517Y73.6950
X96.4661Y73.6950
X97.6805Y73.6950
X98.8950Y73.6950
X48.0950Y61.6300
X47.0971Y60.6321
X46.0993Y59.6343
X45.1014Y58.6364
X44.1036Y57.6386
X43.1057Y56.6407
X42.1079Y55.6429
X41.1100Y54.6450
X46.1900Y56.5500
X47.1879Y57.5479
X48.1857Y58.5457
X49.1836Y59.5436
X42.3800Y52.7400
X43.3779Y53.7379
X44.3757Y54.7357
X45.3736Y55.7336
X38.2979Y51.8329
X39.2957Y52.8307
X40.2936Y53.8286
X39.5679Y49.9279
X40.5657Y50.9257
X41.5636Y51.9236
X33.4900Y47.0250
X34.4879Y48.0229
X35.4857Y49.0207
X35.7579Y46.1179
X36.7557Y47.1157
X41.7450Y25.4350
X43.0150Y25.4350
X44.2850Y25.4350
X45.2375Y25.4350
X46.5075Y25.4350
X47.7775Y25.4350
X43.0150Y22.8950
X44.2850Y22.8950
X45.5550Y22.8950
X46.8250Y22.8950
X39.2050Y22.8950
X40.4750Y22.8950
X41.7450Y22.8950
X36.0300Y31.7850
X36.0300Y33.0550
X36.0300Y34.3250
X36.0300Y35.5950
X36.0300Y26.7050
X36.0300Y27.9750
X36.0300Y29.2450
X36.0300Y30.5150
X38.5700Y26.7050
X38.5700Y27.9750
X38.5700Y29.2450
X38.5700Y30.5150
X38.5700Y31.7850
X38.5700Y33.0550
X38.5700Y34.3250
X48.7073Y24.8227
X49.7052Y23.8248
X50.7030Y22.8270
X36.7671Y24.4598
X35.8486Y39.4277
X36.8464Y38.4298
X35.3043Y36.6382
X39.1143Y25.8432
X36.0300Y25.4350
X37.6288Y47.9095
X54.4748Y54.6152
X81.6971Y55.0419
X80.3742Y55.0419
X79.0512Y55.0419
X77.7283Y55.0419
X76.4054Y55.0419
X75.0825Y55.0419
X73.7596Y55.0419
X72.4367Y55.0419
X71.1138Y55.0419
X81.6971Y53.1369
X80.3742Y53.1369
X79.0512Y53.1369
X77.7283Y53.1369
X76.4054Y53.1369
X73.7596Y53.1369
X72.4367Y53.1369
X71.1138Y53.1369
X56.4393Y53.1270
X55.3380Y53.7520
X53.6116Y55.4784
X52.7484Y56.3416
X51.8852Y57.2048
X51.0220Y58.0680
X50.1588Y58.9313
X56.5881Y55.8356
X55.7249Y56.6988
X54.8617Y57.5620
X53.9985Y58.4252
X53.1353Y59.2884
X52.2721Y60.1516
X51.4089Y61.0148
X50.5457Y61.8780
X49.6825Y62.7413
X69.7644Y53.1369
X68.4415Y53.1369
X67.1185Y53.1369
X65.7956Y53.1369
X64.4727Y53.1369
X63.1498Y53.1369
X61.8269Y53.1369
X60.5040Y53.1369
X59.1810Y53.1369
X57.8581Y53.1369
X69.8437Y55.0419
X68.5208Y55.0419
X67.1979Y55.0419
X65.8750Y55.0419
X64.5521Y55.0419
X63.2292Y55.0419
X61.9062Y55.0419
X60.5833Y55.0419
X59.2604Y55.0419
X57.9375Y55.0419
X92.6508Y37.3413
X91.3279Y37.3413
X90.0050Y37.3413
X88.6821Y37.3413
X87.3592Y37.3413
X86.0362Y37.3413
X84.7133Y37.3413
X83.3904Y37.3413
X82.0675Y37.3413
X95.7994Y56.9469
X95.8258Y54.6450
X94.5029Y54.6450
X81.2737Y56.9469
X93.1006Y41.4158
X93.1006Y40.0929
X93.1006Y38.7700
X81.6706Y38.5848
X94.4364Y56.9445
X93.1135Y56.9445
X91.7906Y56.9445
X90.4676Y56.9445
X89.1447Y56.9445
X87.8218Y56.9445
X86.4989Y56.9445
X85.1760Y56.9445
X83.8531Y56.9445
X82.5302Y56.9445
X81.6706Y51.9462
X81.6706Y50.6233
X81.6706Y49.3004
X81.6706Y47.9775
X81.6706Y46.6546
X81.6706Y45.3317
X81.6706Y44.0087
X81.6706Y42.6858
X81.6706Y41.3629
X81.6706Y40.0400
X93.1006Y54.6450
X93.1006Y53.3221
X93.1006Y51.9992
X93.1006Y50.6762
X93.1006Y49.3533
X93.1006Y48.0304
X93.1006Y46.7075
X93.1006Y45.3846
X93.1006Y44.0617
X93.1006Y42.7388
T2
X68.4150Y27.3200
X68.4150Y24.8200
X76.0350Y27.3200
X76.0350Y24.8200
X27.1400Y17.1800
X22.6950Y14.6400
X22.6950Y12.1000
T3
X33.4900Y45.7550
X33.4900Y43.2150
X33.4900Y40.6750
X33.4900Y38.1350
X33.4900Y35.5950
X33.4900Y33.0550
X33.4900Y30.5150
X33.4900Y27.9750
X41.1100Y27.9750
X41.1100Y30.5150
X41.1100Y33.0550
X41.1100Y35.5950
X41.1100Y38.1350
X41.1100Y40.6750
X41.1100Y43.2150
X41.1100Y45.7550
X18.2500Y45.7550
X18.2500Y43.2150
X18.2500Y40.6750
X18.2500Y38.1350
X18.2500Y35.5950
X18.2500Y33.0550
X18.2500Y30.5150
X18.2500Y27.9750
X25.8700Y27.9750
X25.8700Y30.5150
X25.8700Y33.0550
X25.8700Y35.5950
X25.8700Y38.1350
X25.8700Y40.6750
X25.8700Y43.2150
X25.8700Y45.7550
X30.3150Y67.3450
X30.3150Y62.2650
X27.7750Y24.1650
X20.1550Y24.1650
X83.4963Y54.0894
X83.4963Y51.5494
X83.4963Y49.0094
X83.4963Y46.4694
X83.4963Y43.9294
X83.4963Y41.3894
X83.4963Y38.8494
X91.1163Y38.8494
X91.1163Y41.3894
X91.1163Y43.9294
X91.1163Y46.4694
X91.1163Y49.0094
X91.1163Y51.5494
X91.1163Y54.0894
T4
X67.7800Y6.0675
X65.2400Y6.0675
X62.7000Y6.0675
X60.1600Y6.0675
X57.6200Y6.0675
X55.0800Y6.0675
X52.5400Y6.0675
X50.0000Y6.0675
X47.4600Y6.0675
X44.9200Y6.0675
X42.3800Y6.0675
X39.8400Y6.0675
X37.3000Y6.0675
X34.7600Y6.0675
X32.2200Y6.0675
X67.7800Y21.3075
X65.2400Y21.3075
X62.7000Y21.3075
X60.1600Y21.3075
X57.6200Y21.3075
X55.0800Y21.3075
X52.5400Y21.3075
X50.0000Y21.3075
X47.4600Y21.3075
X44.9200Y21.3075
X42.3800Y21.3075
X39.8400Y21.3075
X37.3000Y21.3075
X34.7600Y21.3075
X32.2200Y21.3075
T5
X15.0750Y60.1219
X15.0750Y62.6619
X15.0750Y65.2019
X4.9150Y60.9950
X4.9150Y63.5350
X93.8150Y8.2900
X93.8150Y10.8300
X8.7250Y40.0400
X8.7250Y37.5000
X8.7250Y34.9600
X8.7250Y32.4200
X8.7250Y29.8800
T6
X75.1619Y43.1356
X75.1619Y52.0256
X75.1619Y60.9156
X49.7619Y60.9156
X49.7619Y43.1356
X27.7750Y56.5500
X39.2050Y56.5500
T7
X3.3900Y52.7400
X7.9900Y52.7400
X20.8900Y52.7400
X25.4900Y52.7400
M30
